<svg xmlns="http://www.w3.org/2000/svg" width="24" height="24" viewBox="0 0 24 24">
  <g id="danger" transform="translate(-428 -252)">
    <path id="Vector" d="M.75,6.5A.755.755,0,0,1,0,5.75v-5A.755.755,0,0,1,.75,0,.755.755,0,0,1,1.5.75v5A.755.755,0,0,1,.75,6.5Z" transform="translate(439.25 260.25)" fill="#292d32"/>
    <path id="Vector-2" data-name="Vector" d="M1,2a1.5,1.5,0,0,1-.2-.02.636.636,0,0,1-.18-.06.757.757,0,0,1-.18-.09l-.15-.12A1.052,1.052,0,0,1,0,1,1.052,1.052,0,0,1,.29.293L.44.172A.757.757,0,0,1,.62.082.636.636,0,0,1,.8.022a.856.856,0,0,1,.39,0,.6.6,0,0,1,.19.06.757.757,0,0,1,.18.09l.15.12A1.052,1.052,0,0,1,2,1a1.052,1.052,0,0,1-.29.71l-.15.12a.757.757,0,0,1-.18.09.6.6,0,0,1-.19.06A1.225,1.225,0,0,1,1,2Z" transform="translate(439 267.997)" fill="#292d32"/>
    <path id="Vector-3" data-name="Vector" d="M16.816,20.32H4.7A4.606,4.606,0,0,1,.5,18.33a4.6,4.6,0,0,1,.3-4.64l6.06-10.9c1-1.8,2.38-2.79,3.9-2.79s2.9.99,3.9,2.79l6.06,10.91a4.579,4.579,0,0,1,.3,4.64A4.622,4.622,0,0,1,16.816,20.32ZM10.756,1.5c-.94,0-1.86.72-2.59,2.02L2.116,14.43a3.2,3.2,0,0,0-.32,3.15,3.175,3.175,0,0,0,2.91,1.25h12.12a3.186,3.186,0,0,0,2.91-1.25,3.173,3.173,0,0,0-.32-3.15L13.346,3.52C12.616,2.22,11.7,1.5,10.756,1.5Z" transform="translate(429.244 253.84)" fill="#292d32"/>
    <path id="Vector-4" data-name="Vector" d="M0,0H24V24H0Z" transform="translate(428 252)" fill="none" opacity="0"/>
  </g>
</svg>
