<svg xmlns="http://www.w3.org/2000/svg" width="72" height="82.46" viewBox="0 0 72 82.46">
  <g id="noun_details_1251527" transform="translate(-14 -8.77)">
    <path id="Caminho_1" data-name="Caminho 1" d="M86,18.77a10,10,0,0,0-10-10H24a10,10,0,0,0-10,10V81.23a10,10,0,0,0,10,10H76a10,10,0,0,0,10-10ZM82,81.23a6,6,0,0,1-6,6H24a6,6,0,0,1-6-6V18.77a6,6,0,0,1,6-6H76a6,6,0,0,1,6,6Z"/>
    <path id="Caminho_2" data-name="Caminho 2" d="M31.35,48.5H27.4a2,2,0,0,0,0,4h3.95a2,2,0,0,0,0-4Z"/>
    <path id="Caminho_3" data-name="Caminho 3" d="M72.6,48.5H40.29a2,2,0,0,0,0,4H72.6a2,2,0,0,0,0-4Z"/>
    <path id="Caminho_4" data-name="Caminho 4" d="M31.35,30.5H27.4a2,2,0,0,0,0,4h3.95a2,2,0,0,0,0-4Z"/>
    <path id="Caminho_5" data-name="Caminho 5" d="M72.6,30.5H40.29a2,2,0,0,0,0,4H72.6a2,2,0,0,0,0-4Z"/>
    <path id="Caminho_6" data-name="Caminho 6" d="M31.35,66.5H27.4a2,2,0,0,0,0,4h3.95a2,2,0,0,0,0-4Z"/>
    <path id="Caminho_7" data-name="Caminho 7" d="M72.6,66.5H40.29a2,2,0,0,0,0,4H72.6a2,2,0,0,0,0-4Z"/>
  </g>
</svg>
