<svg xmlns="http://www.w3.org/2000/svg" width="24" height="24" viewBox="0 0 24 24">
  <g id="information" transform="translate(-108 -508)">
    <path id="Vector" d="M10.765,21.483a2.662,2.662,0,0,1-1.74-.63L7.445,19.5a1.533,1.533,0,0,0-.77-.28H4.925a2.68,2.68,0,0,1-2.68-2.68v-1.71a1.547,1.547,0,0,0-.27-.76l-1.36-1.6A2.755,2.755,0,0,1,.615,9l1.36-1.6a1.547,1.547,0,0,0,.27-.76v-1.7a2.68,2.68,0,0,1,2.68-2.68h1.73a1.582,1.582,0,0,0,.77-.29L9.005.623a2.757,2.757,0,0,1,3.49,0l1.58,1.35a1.568,1.568,0,0,0,.78.28h1.7a2.68,2.68,0,0,1,2.68,2.68v1.7a1.582,1.582,0,0,0,.29.77l1.35,1.58a2.744,2.744,0,0,1,0,3.49l-1.35,1.58a1.568,1.568,0,0,0-.28.77v1.7a2.68,2.68,0,0,1-2.68,2.68h-1.7a1.655,1.655,0,0,0-.78.29l-1.58,1.35A2.639,2.639,0,0,1,10.765,21.483ZM4.925,3.763a1.182,1.182,0,0,0-1.18,1.18v1.7a2.955,2.955,0,0,1-.63,1.73l-1.36,1.6a1.275,1.275,0,0,0,0,1.53l1.35,1.59a2.948,2.948,0,0,1,.63,1.73v1.71a1.182,1.182,0,0,0,1.18,1.18h1.74a3.021,3.021,0,0,1,1.74.64l1.59,1.36a1.261,1.261,0,0,0,1.54,0l1.58-1.35a2.977,2.977,0,0,1,1.74-.64h1.7a1.182,1.182,0,0,0,1.18-1.18v-1.7a3.046,3.046,0,0,1,.64-1.74l1.36-1.59a1.261,1.261,0,0,0,0-1.54l-1.35-1.58a2.977,2.977,0,0,1-.64-1.74V4.942a1.182,1.182,0,0,0-1.18-1.18h-1.7a3.025,3.025,0,0,1-1.75-.64l-1.59-1.36a1.261,1.261,0,0,0-1.54,0L8.4,3.123a3.05,3.05,0,0,1-1.75.64Z" transform="translate(109.245 509.258)" fill="#292d32"/>
    <path id="Vector-2" data-name="Vector" d="M1,2A1,1,0,1,1,2,1,1,1,0,0,1,1,2Z" transform="translate(119 522.87)" fill="#292d32"/>
    <path id="Vector-3" data-name="Vector" d="M.75,6.34A.755.755,0,0,1,0,5.59V.75A.755.755,0,0,1,.75,0,.755.755,0,0,1,1.5.75V5.58A.751.751,0,0,1,.75,6.34Z" transform="translate(119.25 515.38)" fill="#292d32"/>
    <path id="Vector-4" data-name="Vector" d="M0,0H24V24H0Z" transform="translate(108 508)" fill="none" opacity="0"/>
  </g>
</svg>
