<svg xmlns="http://www.w3.org/2000/svg" width="24" height="24" viewBox="0 0 24 24">
  <g id="refresh" transform="translate(-364 -508)">
    <path id="Vector" d="M13.3,21.17a.756.756,0,0,1-.73-.56.749.749,0,0,1,.54-.92,9.253,9.253,0,0,0-2.36-18.2,11.3,11.3,0,0,0-8.5,4.06H5.19a.755.755,0,0,1,0,1.51H.76a.881.881,0,0,1-.21-.03.9.9,0,0,1-.24-.12A.659.659,0,0,1,.1,6.68.808.808,0,0,1,0,6.37V1.75A.755.755,0,0,1,.75,1a.755.755,0,0,1,.75.75V4.14A12.558,12.558,0,0,1,10.75,0a10.753,10.753,0,0,1,2.74,21.15A1.225,1.225,0,0,1,13.3,21.17Z" transform="translate(365.25 509.25)" fill="#292d32"/>
    <path id="Vector-2" data-name="Vector" d="M10.04,11.48a.433.433,0,0,1-.05-.01,10.524,10.524,0,0,1-3.14-.7.751.751,0,0,1-.43-.97.771.771,0,0,1,.97-.43,9.36,9.36,0,0,0,2.7.61.756.756,0,0,1,.7.76l-.01.04A.744.744,0,0,1,10.04,11.48ZM4.53,9.33a.807.807,0,0,1-.47-.16A11.037,11.037,0,0,1,1.88,6.82a.729.729,0,0,1-.14-.42.738.738,0,0,1,.33-.62.769.769,0,0,1,1.04.18v.01c.01.01.02.03.03.04A9.21,9.21,0,0,0,5,7.99a.755.755,0,0,1,.28.58.771.771,0,0,1-.16.48A.759.759,0,0,1,4.53,9.33ZM1.19,4.45a.732.732,0,0,1-.71-.52A10.705,10.705,0,0,1,0,.75V.74A.753.753,0,0,1,.75,0,.755.755,0,0,1,1.5.75a9.209,9.209,0,0,0,.41,2.73.908.908,0,0,1,.03.23.747.747,0,0,1-.53.71A.78.78,0,0,1,1.19,4.45Z" transform="translate(365.25 519.25)" fill="#292d32"/>
    <path id="Vector-3" data-name="Vector" d="M0,0H24V24H0Z" transform="translate(364 508)" fill="none" opacity="0"/>
  </g>
</svg>
